<?xml version="1.0" standalone="no"?>
<!DOCTYPE svg PUBLIC "-//W3C//DTD SVG 20010904//EN"
 "http://www.w3.org/TR/2001/REC-SVG-20010904/DTD/svg10.dtd">
<svg version="1.0" xmlns="http://www.w3.org/2000/svg"
 width="512.000000pt" height="512.000000pt" viewBox="0 0 512.000000 512.000000"
 preserveAspectRatio="xMidYMid meet">

<g transform="translate(0.000000,512.000000) scale(0.100000,-0.100000)"
stroke="none">
<path d="M2285 3839 c-775 -53 -1335 -129 -1543 -211 -129 -51 -225 -124 -284 
-218 -100 -158 -143 -380 -158 -815 -19 -538 15 -951 99 -1215 69 -217 211 
-347 466 -427 235 -73 775 -142 1350 -171 363 -19 911 -12 1275 15 750 57 
1196 152 1407 301 155 110 238 296 275 616 29 255 32 882 5 1146 -38 359 -121 
580 -259 686 -200 155 -840 264 -1718 294 -173 6 -777 5 -915 -1z m-185 -1309 
c0 -446 3 -810 6 -810 6 0 1114 541 1118 545 5 6 -1119 555 -1124 549 -3 -3 
-5 -130 -5 -282 l0 -278 -237 -115 c-131 -63 -240 -115 -244 -115 -4 0 -6 115 
-4 256 l3 257 241 120 c132 66 241 122 241 124 0 1 -108 57 -240 123 l-240 
121 -3 153 c-1 83 -1 152 1 152 2 0 5 -365 5 -810 0 -445 -3 -810 -6 -810 -3 
0 -4 365 -2 810 l3 810 -1 -810z"/>
</g>
</svg> 