<?xml version="1.0" encoding="utf-8"?>
<!-- Generator: Adobe Illustrator 24.1.2, SVG Export Plug-In . SVG Version: 6.00 Build 0)  -->
<svg version="1.1" id="Layer_1" xmlns="http://www.w3.org/2000/svg" xmlns:xlink="http://www.w3.org/1999/xlink" x="0px" y="0px"
	 viewBox="0 0 3168 91.92" style="enable-background:new 0 0 3168 91.92;" xml:space="preserve">
<polygon points="3168,49.5 3118.5,0 3069,49.5 3019.5,0 2970,49.5 2920.5,0 2871,49.5 2821.5,0 2772,49.5 2722.5,0 2673,49.5 
	2623.5,0 2574,49.5 2524.5,0 2475,49.5 2425.5,0 2376,49.5 2326.5,0 2277,49.5 2227.5,0 2178,49.5 2128.5,0 2079,49.5 2029.5,0 
	1980,49.5 1930.5,0 1881,49.5 1831.5,0 1782,49.5 1732.5,0 1683,49.5 1633.5,0 1584,49.5 1534.5,0 1485,49.5 1435.5,0 1386,49.5 
	1336.5,0 1287,49.5 1237.5,0 1188,49.5 1138.5,0 1089,49.5 1039.5,0 990,49.5 940.5,0 891,49.5 841.5,0 792,49.5 742.5,0 693,49.5 
	643.5,0 594,49.5 544.5,0 495,49.5 445.5,0 396,49.5 346.5,0 297,49.5 247.5,0 198,49.5 148.5,0 99,49.5 49.5,0 0,49.5 0,91.92 
	0,91.92 49.5,42.42 77.79,70.71 99,91.92 120.21,70.71 148.5,42.42 176.79,70.71 198,91.92 219.21,70.71 247.5,42.42 275.79,70.71 
	297,91.92 318.21,70.71 346.5,42.42 374.79,70.71 396,91.92 417.21,70.71 445.5,42.42 473.79,70.71 495,91.92 516.21,70.71 
	544.5,42.42 572.79,70.71 594,91.92 615.21,70.71 643.5,42.42 671.79,70.71 693,91.92 714.21,70.71 742.5,42.42 770.79,70.71 
	792,91.92 813.21,70.71 841.5,42.42 869.79,70.71 891,91.92 912.21,70.71 940.5,42.42 968.79,70.71 990,91.92 1011.21,70.71 
	1039.5,42.42 1067.79,70.71 1089,91.92 1110.21,70.71 1138.5,42.42 1166.79,70.71 1188,91.92 1209.21,70.71 1237.5,42.42 
	1265.79,70.71 1287,91.92 1308.21,70.71 1336.5,42.42 1364.79,70.71 1386,91.92 1407.21,70.71 1435.5,42.42 1463.79,70.71 
	1485,91.92 1506.21,70.71 1534.5,42.42 1562.79,70.71 1584,91.92 1605.21,70.71 1633.5,42.42 1661.79,70.71 1683,91.92 
	1704.21,70.71 1732.5,42.42 1760.79,70.71 1782,91.92 1803.21,70.71 1831.5,42.42 1859.79,70.71 1881,91.92 1902.21,70.71 
	1930.5,42.42 1958.79,70.71 1980,91.92 2001.21,70.71 2029.5,42.42 2057.79,70.71 2079,91.92 2100.21,70.71 2128.5,42.42 
	2156.79,70.71 2178,91.92 2199.21,70.71 2227.5,42.42 2255.79,70.71 2277,91.92 2298.21,70.71 2326.5,42.42 2354.79,70.71 
	2376,91.92 2397.21,70.71 2425.5,42.42 2453.79,70.71 2475,91.92 2496.21,70.71 2524.5,42.42 2552.79,70.71 2574,91.92 
	2595.21,70.71 2623.5,42.42 2651.79,70.71 2673,91.92 2694.21,70.71 2722.5,42.42 2750.79,70.71 2772,91.92 2793.21,70.71 
	2821.5,42.42 2849.79,70.71 2871,91.92 2892.21,70.71 2920.5,42.42 2948.79,70.71 2970,91.92 2991.21,70.71 3019.5,42.42 
	3047.79,70.71 3069,91.92 3090.21,70.71 3118.5,42.42 3168,91.92 "/>
</svg>
